<?xml version="1.0" encoding="UTF-8" standalone="no"?>
<!-- Created with Inkscape (http://www.inkscape.org/) -->

<svg
   xmlns:dc="http://purl.org/dc/elements/1.1/"
   xmlns:cc="http://creativecommons.org/ns#"
   xmlns:rdf="http://www.w3.org/1999/02/22-rdf-syntax-ns#"
   xmlns:svg="http://www.w3.org/2000/svg"
   xmlns="http://www.w3.org/2000/svg"
   xmlns:sodipodi="http://sodipodi.sourceforge.net/DTD/sodipodi-0.dtd"
   xmlns:inkscape="http://www.inkscape.org/namespaces/inkscape"
   width="256px"
   height="256px"
   viewBox="0 0 256 256"
   version="1.1"
   id="SVGRoot"
   inkscape:version="0.92.3 (2405546, 2018-03-11)"
   sodipodi:docname="icon_coguess.svg"
   inkscape:export-filename="/home/maikel/programs/android_projects/CoGuess/icon_coguess.png"
   inkscape:export-xdpi="192"
   inkscape:export-ydpi="192">
  <sodipodi:namedview
     id="base"
     pagecolor="#ffffff"
     bordercolor="#666666"
     borderopacity="1.0"
     inkscape:pageopacity="0"
     inkscape:pageshadow="2"
     inkscape:zoom="1.23"
     inkscape:cx="-3.8267142"
     inkscape:cy="130.17001"
     inkscape:document-units="px"
     inkscape:current-layer="layer1"
     showgrid="false"
     inkscape:window-width="1853"
     inkscape:window-height="1023"
     inkscape:window-x="67"
     inkscape:window-y="27"
     inkscape:window-maximized="0"
     inkscape:grid-bbox="true"
     inkscape:measure-start="-27.5,71.5"
     inkscape:measure-end="156.75,19.5"
     inkscape:lockguides="false"
     inkscape:pagecheckerboard="true"
     inkscape:snap-bbox="false"
     inkscape:bbox-paths="true"
     inkscape:snap-global="true" />
  <defs
     id="defs3920" />
  <metadata
     id="metadata3923">
    <rdf:RDF>
      <cc:Work
         rdf:about="">
        <dc:format>image/svg+xml</dc:format>
        <dc:type
           rdf:resource="http://purl.org/dc/dcmitype/StillImage" />
        <dc:title></dc:title>
      </cc:Work>
    </rdf:RDF>
  </metadata>
  <g
     id="layer1"
     inkscape:groupmode="layer"
     inkscape:label="Layer 1">
    <path
       style="fill:#ffffff;fill-opacity:1;stroke:none;stroke-opacity:1"
       d="m 48.000001,0 c -26.592,0 -48,21.408 -48,48 v 80 H 256 V 48 C 256,21.408 234.592,0 208,0 Z"
       id="rectupper"
       inkscape:connector-curvature="0" />
    <path
       style="fill:#64b5f6;fill-opacity:1;stroke:none;stroke-opacity:1"
       d="m 208,256 c 26.592,0 48,-21.408 48,-48 V 128 H 1e-6 v 80 c 0,26.592 21.408,48 48,48 z"
       id="rectlower"
       inkscape:connector-curvature="0" />
    <path
       d="m 83.440584,138.21533 c -9.123522,0 -16.488282,7.36476 -16.488282,16.48828 0,9.12351 7.36476,16.48828 16.488282,16.48828 9.1235,0 16.42385,-7.36477 16.42385,-16.48828 0,-9.12352 -7.30035,-16.48828 -16.42385,-16.48828 z m 43.968736,0 c -9.12352,0 -16.48828,7.36476 -16.48828,16.48828 0,9.12351 7.36476,16.48828 16.48828,16.48828 9.12351,0 16.42386,-7.36477 16.42386,-16.48828 0,-9.12352 -7.30035,-16.48828 -16.42386,-16.48828 z m 43.52862,0 c -9.12352,0 -16.48828,7.36476 -16.48828,16.48828 0,9.12351 7.36476,16.48828 16.48828,16.48828 9.12351,0 16.43458,-7.36477 16.43458,-16.48828 0,-9.12352 -7.31107,-16.48828 -16.43458,-16.48828 z m -87.497356,43.96874 c -12.805902,0 -38.472655,6.43043 -38.472655,19.23633 v 13.74024 H 121.91323 V 201.4204 c 0,-12.8059 -25.666766,-19.23633 -38.472646,-19.23633 z m 43.968736,0 c -1.59387,0 -3.41143,0.11426 -5.33506,0.2791 6.37546,4.61672 10.83115,10.82302 10.83115,18.95723 v 13.74024 h 32.97657 V 201.4204 c 0,-12.8059 -25.66676,-19.23633 -38.47266,-19.23633 z m 43.52862,0 c -1.59387,0 -3.41143,0.11426 -5.33506,0.2791 6.37546,4.61677 10.83115,10.82302 10.83115,18.95723 v 13.74024 H 209.4106 V 201.4204 c 0,-12.8059 -25.66676,-19.23633 -38.47266,-19.23633 z"
       id="img_people"
       inkscape:connector-curvature="0"
       style="fill:#ffffff;stroke-width:5.49609375" />
    <path
       style="font-style:normal;font-variant:normal;font-weight:bold;font-stretch:normal;font-size:240px;line-height:1.25;font-family:Carlito;-inkscape-font-specification:'Carlito Bold';letter-spacing:0px;word-spacing:0px;fill:#64b5f6;fill-opacity:1;stroke:none;stroke-width:0.77975112"
       d="m 169.26378,46.106047 c 2.45788,-1.170357 5.03921,-2.213035 7.74401,-3.128034 2.76362,-0.899227 5.64858,-1.545212 8.65489,-1.937946 3.08094,-0.435807 6.26744,-0.559529 9.5595,-0.371153 3.35092,0.204137 6.85049,0.794978 10.49872,1.772516 5.06045,1.355941 9.46094,3.291856 13.20149,5.807745 3.75634,2.457043 6.7587,5.374265 9.00708,8.751665 2.26412,3.31856 3.70182,7.014802 4.31302,11.088728 0.68581,4.030853 0.42959,8.282283 -0.7687,12.7543 -1.16673,4.354332 -2.78575,7.925267 -4.85709,10.712809 -2.07133,2.787545 -4.36381,5.105888 -6.87742,6.955045 -2.49786,1.790318 -5.1013,3.268538 -7.81031,4.434678 -2.69325,1.10727 -5.23727,2.12844 -7.63208,3.06342 -2.33596,0.95074 -4.43656,1.96458 -6.30178,3.04146 -1.84948,1.01805 -3.1657,2.39971 -3.94866,4.14499 l -5.4057,11.70101 -15.26958,-4.09147 2.03604,-14.3067 c 0.37224,-2.80136 1.38541,-5.05256 3.03945,-6.753638 1.65407,-1.701071 3.61392,-3.131013 5.87949,-4.28983 2.34019,-1.201891 4.83325,-2.268218 7.4792,-3.198981 2.72056,-0.973843 5.28824,-2.083245 7.70303,-3.32821 2.48941,-1.288042 4.68883,-2.906054 6.59826,-4.854037 1.96828,-1.932216 3.37023,-4.457646 4.20587,-7.576286 1.04062,-3.883596 0.50711,-7.30603 -1.60049,-10.267309 -2.09185,-3.020123 -5.34436,-5.121437 -9.75753,-6.30394 -3.1775,-0.851403 -5.94941,-1.215739 -8.31579,-1.093 -2.36636,0.122734 -4.45429,0.383106 -6.26376,0.781243 -1.75064,0.413858 -3.25012,0.831937 -4.49849,1.254243 -1.24836,0.422304 -2.3433,0.507327 -3.28476,0.255059 -2.00065,-0.536066 -3.31558,-1.865941 -3.94481,-3.989622 z"
       id="text1"
       inkscape:connector-curvature="0" />
    <path
       style="font-style:normal;font-variant:normal;font-weight:bold;font-stretch:normal;font-size:240px;line-height:1.25;font-family:Carlito;-inkscape-font-specification:'Carlito Bold';letter-spacing:0px;word-spacing:0px;fill:#64b5f6;fill-opacity:1;stroke:none;stroke-width:0.77975112"
       d="m 96.523114,49.237159 c 2.071219,-1.766624 4.294726,-3.441871 6.670546,-5.025745 2.43671,-1.583864 5.05618,-2.95452 7.8584,-4.111964 2.86317,-1.218362 5.90907,-2.162595 9.13771,-2.832684 3.28956,-0.670099 6.82282,-1.005148 10.59975,-1.005155 5.23895,-2e-6 9.99056,0.731018 14.25481,2.193055 4.26427,1.401109 7.91936,3.441861 10.96527,6.122255 3.04588,2.619485 5.39124,5.817677 7.03603,9.594596 1.70571,3.716005 2.55856,7.888886 2.55854,12.518664 2e-5,4.507932 -0.6396,8.376224 -1.91891,11.604886 -1.27928,3.228661 -2.89361,6.061345 -4.84297,8.498064 -1.94938,2.375809 -4.08152,4.47748 -6.3964,6.305031 -2.3149,1.766604 -4.50794,3.411423 -6.57915,4.934363 -2.0103,1.52294 -3.77692,3.045915 -5.29986,4.568855 -1.52298,1.46204 -2.43675,3.13728 -2.74132,5.02573 l -2.19307,12.70142 -15.80822,-1e-5 -1.73618,-14.34617 c -0.36549,-2.80225 0.0305,-5.23897 1.18791,-7.310195 1.15744,-2.07121 2.68041,-3.959674 4.56886,-5.665378 1.94938,-1.766624 4.0815,-3.441867 6.39639,-5.025737 2.3758,-1.644793 4.56886,-3.380957 6.57915,-5.208495 2.07121,-1.888459 3.77693,-4.020593 5.11711,-6.396395 1.40113,-2.375806 2.10167,-5.178036 2.10168,-8.406689 1e-5,-4.020598 -1.40111,-7.188334 -4.20333,-9.503223 -2.80224,-2.375805 -6.48778,-3.563705 -11.05664,-3.563702 -3.28958,3e-6 -6.06133,0.365505 -8.31531,1.096526 -2.25397,0.731012 -4.20336,1.522907 -5.84813,2.375803 -1.58387,0.852856 -2.92405,1.644782 -4.02059,2.3758 -1.09652,0.731014 -2.13214,1.096532 -3.10682,1.096527 -2.07122,6e-6 -3.68554,-0.944226 -4.84298,-2.832686 z"
       id="text2"
       inkscape:connector-curvature="0" />
    <path
       style="font-style:normal;font-variant:normal;font-weight:bold;font-stretch:normal;font-size:240px;line-height:1.25;font-family:Carlito;-inkscape-font-specification:'Carlito Bold';letter-spacing:0px;word-spacing:0px;fill:#64b5f6;fill-opacity:1;stroke:none;stroke-width:0.77975112"
       d="m 23.39556,62.545708 c 1.543409,-2.2425 3.257568,-4.43615 5.142497,-6.580963 1.943746,-2.160562 4.119209,-4.162482 6.526377,-6.005756 2.450275,-1.917891 5.148002,-3.618286 8.093197,-5.101176 3.004038,-1.498666 6.330187,-2.736774 9.97842,-3.714322 5.060436,-1.355942 9.839341,-1.879638 14.336694,-1.571089 4.481601,0.249694 8.540333,1.274902 12.176193,3.075625 3.620067,1.741896 6.713264,4.224089 9.279547,7.446609 2.609362,3.147915 4.513174,6.957876 5.711429,11.429902 1.166758,4.354323 1.55012,8.256351 1.150041,11.706109 -0.400051,3.44975 -1.226221,6.603732 -2.478489,9.461953 -1.268053,2.799391 -2.783589,5.381289 -4.546586,7.745703 -1.778792,2.305548 -3.471395,4.461922 -5.077865,6.469034 -1.547635,1.991346 -2.859882,3.919673 -3.936763,5.784883 -1.092682,1.8064 -1.541733,3.66105 -1.347158,5.56399 l 1.16902,12.83623 -15.26957,4.09146 -5.390079,-13.40797 c -1.078315,-2.61218 -1.326487,-5.06836 -0.744587,-7.36857 0.581933,-2.3002 1.564238,-4.518487 2.946872,-6.654837 1.42572,-2.210964 3.051606,-4.380958 4.877682,-6.509996 1.869143,-2.203651 3.538124,-4.448262 5.006914,-6.73383 1.511865,-2.36018 2.607628,-4.861136 3.287239,-7.502848 0.738484,-2.657492 0.689883,-5.545552 -0.145745,-8.664194 -1.040598,-3.883602 -3.213845,-6.580762 -6.519719,-8.091506 -3.32166,-1.569578 -7.189069,-1.763113 -11.602248,-0.580603 -3.177489,0.851409 -5.760195,1.921838 -7.748172,3.211324 -1.987968,1.289473 -3.665976,2.558924 -5.033956,3.808456 -1.309165,1.233732 -2.398715,2.345538 -3.268689,3.335453 -0.869957,0.989905 -1.775686,1.611006 -2.717157,1.863267 -2.000642,0.536077 -3.804341,0.04184 -5.411112,-1.482709 z"
       id="text3"
       inkscape:connector-curvature="0" />
  </g>
</svg>
